<mxfile host="app.diagrams.net" agent="Mozilla/5.0 (Windows NT 10.0; Win64; x64) AppleWebKit/537.36 (KHTML, like Gecko) Chrome/109.0.0.0 Safari/537.36" version="24.9.1">
  <diagram name="PÃ¡gina-1" id="PwgWQPj2GMBvV9HLz7if">
    <mxGraphModel dx="2021" dy="1913" grid="1" gridSize="10" guides="1" tooltips="1" connect="1" arrows="1" fold="1" page="1" pageScale="1" pageWidth="827" pageHeight="1169" math="0" shadow="0">
      <root>
        <mxCell id="0" />
        <mxCell id="1" parent="0" />
        <mxCell id="GgWYSHET458Jb5jJNCwM-1" value="ReservaMesa" style="swimlane;fontStyle=1;align=center;verticalAlign=top;childLayout=stackLayout;horizontal=1;startSize=26;horizontalStack=0;resizeParent=1;resizeParentMax=0;resizeLast=0;collapsible=1;marginBottom=0;whiteSpace=wrap;html=1;fillColor=#BAC8D3;" vertex="1" parent="1">
          <mxGeometry x="-500" y="-550" width="250" height="260" as="geometry" />
        </mxCell>
        <mxCell id="GgWYSHET458Jb5jJNCwM-2" value="- Mesas : ArrayList&amp;lt;Mesas&amp;gt;;&lt;div&gt;- quantidadeAtual, quantidadeMaxima: Int;&lt;/div&gt;" style="text;strokeColor=none;fillColor=none;align=left;verticalAlign=middle;spacingLeft=4;spacingRight=4;overflow=hidden;rotatable=0;points=[[0,0.5],[1,0.5]];portConstraint=eastwest;whiteSpace=wrap;html=1;spacing=2;" vertex="1" parent="GgWYSHET458Jb5jJNCwM-1">
          <mxGeometry y="26" width="250" height="34" as="geometry" />
        </mxCell>
        <mxCell id="GgWYSHET458Jb5jJNCwM-3" value="" style="line;strokeWidth=1;fillColor=none;align=left;verticalAlign=middle;spacingTop=-1;spacingLeft=3;spacingRight=3;rotatable=0;labelPosition=right;points=[];portConstraint=eastwest;strokeColor=inherit;" vertex="1" parent="GgWYSHET458Jb5jJNCwM-1">
          <mxGeometry y="60" width="250" height="10" as="geometry" />
        </mxCell>
        <mxCell id="GgWYSHET458Jb5jJNCwM-4" value="&lt;div&gt;- adicionarMesa(int capacidade, String numero) : void;&lt;/div&gt;- VerificarDisponibilidade (Capacidade: Integer, Data : LocalDate, Hora: LocalTime) : Mesa;&lt;div&gt;- VerificarReserva(Capacidade: Int, Data: LocalDate, Hora: LocalTime, Nome: String): Mesa;&amp;nbsp;&lt;div&gt;- ReservarMesa (Data: LocalDate, Hora : LocalTime, QuantidadePessoas : Integer) : Void;&lt;/div&gt;&lt;div&gt;- CancelarReserva(Data: LocalDate, Hora: LocalTime, quantidadePessoas: int) : void;&lt;/div&gt;&lt;/div&gt;" style="text;strokeColor=none;fillColor=none;align=left;verticalAlign=middle;spacingLeft=4;spacingRight=4;overflow=hidden;rotatable=0;points=[[0,0.5],[1,0.5]];portConstraint=eastwest;whiteSpace=wrap;html=1;" vertex="1" parent="GgWYSHET458Jb5jJNCwM-1">
          <mxGeometry y="70" width="250" height="190" as="geometry" />
        </mxCell>
      </root>
    </mxGraphModel>
  </diagram>
</mxfile>
